Coordinates
version=1
nRows=30
nColumns=23
inDegrees=yes

Units are S.I. units (second, meters, Newtons, ...)
If the header above contains a line with 'inDegrees', this indicates whether rotational values are in degrees (yes) or radians (no).

endheader
time	pelvis_tilt	pelvis_list	pelvis_rotation	pelvis_tx	pelvis_ty	pelvis_tz	hip_flexion_r	hip_adduction_r	hip_rotation_r	knee_angle_r	knee_angle_r_beta	ankle_angle_r	subtalar_angle_r	mtp_angle_r	hip_flexion_l	hip_adduction_l	hip_rotation_l	knee_angle_l	knee_angle_l_beta	ankle_angle_l	subtalar_angle_l	mtp_angle_l
     22.50000000	      4.22770396	      0.92522557	     -0.12575538	      2.11887431	      1.04168673	      1.06353985	     27.04569996	     -1.15062320	     -2.93997980	     70.36329727	      1.22807121	      2.96292559	    -15.52037108	      0.00000000	    -18.48559412	      2.49326071	     -5.92700074	     22.45640489	      0.39193820	      6.38769140	      7.16418337	      0.00000000
     22.50666667	      3.89353981	      0.47152375	     -0.62874978	      2.12088530	      1.04576076	      1.06421019	     27.34909657	     -0.60221573	     -3.20400302	     67.29446657	      1.17451001	      3.13768610	    -15.56290149	      0.00000000	    -19.55284975	      2.28807128	     -6.57927148	     21.03519805	      0.36713346	      3.09144543	      6.57947501	      0.00000000
     22.51333333	      3.52480431	      0.05479508	     -1.08774838	      2.12290716	      1.04965938	      1.06482090	     27.59103317	     -0.13525897	     -3.56830664	     64.11412843	      1.11900264	      3.29069768	    -15.42072161	      0.00000000	    -20.44870346	      2.12081480	     -7.12433524	     19.82183940	      0.34595636	     -0.28359747	      5.80207607	      0.00000000
     22.52000000	      2.55924668	     -0.21870299	     -1.40104341	      2.12487528	      1.05268599	      1.06529600	     28.42965589	      0.12999906	     -4.06176827	     60.91730671	      1.06320757	      3.55156753	    -14.91770671	      0.00000000	    -20.34801608	      1.92858198	     -7.81246775	     19.28952264	      0.33666568	     -3.10086948	      5.91241798	      0.00000000
     22.52666667	      2.57253224	     -0.56011206	     -1.96898432	      2.12682426	      1.05653976	      1.06597559	     28.08177176	      0.55952647	     -4.40437760	     57.54712069	      1.00438673	      3.70752519	    -14.26999333	      0.00000000	    -21.53471654	      1.92752270	     -8.24960660	     18.21203998	      0.31786006	     -6.80077099	      4.31935829	      0.00000000
     22.53333333	      1.84802175	     -0.73313665	     -2.45886850	      2.12860770	      1.05922522	      1.06668566	     28.53730699	      0.82497235	     -4.78915275	     54.25017124	      0.94684411	      3.96760944	    -13.27977794	      0.00000000	    -21.47601022	      1.84338162	     -9.19209933	     18.03808908	      0.31482405	     -9.66922671	      3.93423899	      0.00000000
     22.54000000	      1.45565399	     -0.89288269	     -2.89939614	      2.13049143	      1.06208761	      1.06729425	     28.52249726	      1.00883617	     -5.34410518	     50.89911297	      0.88835711	      4.34295901	    -11.70459167	      0.00000000	    -21.83311799	      1.88559310	     -9.54274992	     17.69194935	      0.30878277	    -12.55933185	      2.91221930	      0.00000000
     22.54666667	      0.72281317	     -0.96608073	     -3.40361448	      2.13216069	      1.06412293	      1.06814786	     28.86964236	      1.27270967	     -5.66923228	     47.59988443	      0.83077471	      4.53675964	    -10.29704967	      0.00000000	    -21.51229727	      1.86056827	    -10.34964518	     17.98232980	      0.31385086	    -14.91243159	      2.48954126	      0.00000000
     22.55333333	      0.19807681	     -1.01971481	     -3.87334338	      2.13372346	      1.06597560	      1.06903110	     28.95206530	      1.50026063	     -6.06834962	     44.37344851	      0.77446278	      4.77823652	     -8.48819686	      0.00000000	    -21.31754482	      1.85689959	    -10.93715466	     18.44750322	      0.32196967	    -17.00609204	      1.86593828	      0.00000000
     22.56000000	     -0.15958044	     -1.03596719	     -4.23519922	      2.13536291	      1.06758615	      1.06979476	     28.84170108	      1.51369686	     -6.90734890	     41.36405318	      0.72193892	      5.31540852	     -5.56440454	      0.00000000	    -21.25974947	      1.91757527	    -11.05158661	     18.96663723	      0.33103027	    -18.89930458	      0.91161648	      0.00000000
     22.56666667	     -0.65751528	     -1.04868603	     -4.66527032	      2.13665207	      1.06853704	      1.07084766	     28.88037146	      1.80953726	     -7.17510787	     38.43716217	      0.67085503	      5.41700876	     -3.63583787	      0.00000000	    -20.79884030	      1.88623949	    -11.39260353	     20.00289967	      0.34911646	    -20.33822248	      0.24478877	      0.00000000
     22.57333333	     -1.01425526	     -1.00619562	     -4.99904962	      2.13789233	      1.06911027	      1.07181685	     28.82314052	      1.89815892	     -7.78971378	     35.87658726	      0.62616457	      5.80315990	     -0.84864208	      0.00000000	    -20.39105328	      1.91178977	    -11.38161218	     21.20748051	      0.37014036	    -21.43954804	     -0.36742891	      0.00000000
     22.58000000	     -1.39831898	     -1.01167875	     -5.41801982	      2.13886667	      1.06918898	      1.07303538	     28.77813048	      2.29850393	     -7.74842259	     33.42826194	      0.58343323	      5.84692101	      0.89077084	      0.00000000	    -19.81355638	      1.90420994	    -11.29838407	     22.69536894	      0.39610891	    -22.28451387	     -1.01436909	      0.00000000
     22.58666667	     -1.67971904	     -1.02706036	     -5.69874420	      2.13965335	      1.06884096	      1.07408649	     28.67180580	      2.60626255	     -7.83198020	     31.34660270	      0.54710143	      5.97688363	      2.78946298	      0.00000000	    -19.16208301	      1.83986589	    -10.98977711	     24.52255972	      0.42799941	    -22.80377740	     -1.63122437	      0.00000000
     22.59333333	     -1.89383684	     -0.98194628	     -5.92622580	      2.14019215	      1.06797140	      1.07504351	     28.62585952	      2.73560944	     -8.11917501	     29.78104340	      0.51977726	      6.31872322	      5.13000741	      0.00000000	    -18.42297767	      1.82820709	    -10.53521811	     26.62543626	      0.46470153	    -22.98332984	     -1.94127859	      0.00000000
     22.60000000	     -1.99316620	     -1.03831533	     -6.18073852	      2.14052171	      1.06683282	      1.07598149	     28.40917546	      3.11133788	     -7.83529340	     28.35369804	      0.49486539	      6.38508904	      6.41798461	      0.00000000	    -17.72463575	      1.80722997	     -9.86897768	     28.86835120	      0.50384778	    -23.01739590	     -2.49849204	      0.00000000
     22.60666667	     -2.05093992	     -1.08427039	     -6.37353538	      2.14066618	      1.06523283	      1.07676442	     28.21453202	      3.40137522	     -7.58864057	     27.32956184	      0.47699084	      6.48261537	      7.59604905	      0.00000000	    -16.92029662	      1.79311338	     -9.13556629	     31.37461597	      0.54759035	    -22.75905515	     -2.84387656	      0.00000000
     22.61333333	     -2.06877519	     -1.16322369	     -6.53454157	      2.14055666	      1.06309993	      1.07737497	     28.07494408	      3.64008498	     -7.43347892	     26.77726724	      0.46735148	      6.59035063	      8.77561140	      0.00000000	    -15.99513690	      1.71450607	     -8.51102299	     34.17923813	      0.59654024	    -22.16120646	     -2.82196812	      0.00000000
     22.62000000	     -1.92529134	     -1.30214124	     -6.67043170	      2.14030495	      1.06072638	      1.07785490	     27.77122053	      3.90513409	     -7.21264322	     26.51818873	      0.46282970	      6.58207399	      9.51929036	      0.00000000	    -15.17402548	      1.63356521	     -7.83181222	     37.07684537	      0.64711303	    -21.47321136	     -2.95980642	      0.00000000
     22.62666667	     -1.68861107	     -1.47619305	     -6.79652574	      2.13990530	      1.05794972	      1.07820634	     27.42430301	      4.14149995	     -7.05394767	     26.64996818	      0.46512969	      6.58406223	     10.06363676	      0.00000000	    -14.34752271	      1.49287471	     -7.32450877	     40.14465158	      0.70065635	    -20.57745739	     -2.95958570	      0.00000000
     22.63333333	     -1.31737007	     -1.74843674	     -6.88989250	      2.13940758	      1.05491282	      1.07845598	     26.95658036	      4.42044163	     -6.95999088	     27.11340631	      0.47321821	      6.55579295	     10.27533816	      0.00000000	    -13.60529804	      1.27222243	     -6.84625750	     43.29438155	      0.75562951	    -19.63271411	     -3.09909650	      0.00000000
     22.64000000	     -0.93263873	     -2.03592954	     -6.98114296	      2.13870000	      1.05135176	      1.07865115	     26.53947764	      4.68026377	     -6.91374802	     27.95622497	      0.48792817	      6.61501201	     10.23670149	      0.00000000	    -12.75390649	      0.93251616	     -6.65340128	     46.63983624	      0.81401871	    -18.55364487	     -3.03551478	      0.00000000
     22.64666667	     -0.43986656	     -2.36186004	     -7.13553301	      2.13786434	      1.04748082	      1.07891052	     26.05620616	      4.97772216	     -6.83493054	     29.14946819	      0.50875420	      6.79128661	      9.91844490	      0.00000000	    -11.98798478	      0.52525206	     -6.66899916	     49.98486904	      0.87240054	    -17.53845686	     -3.00985116	      0.00000000
     22.65333333	      0.07502314	     -2.74218620	     -7.29268557	      2.13689041	      1.04324567	      1.07918285	     25.57405199	      5.34701671	     -6.69782782	     30.61612071	      0.53435211	      7.16305826	      9.35765010	      0.00000000	    -11.18127955	      0.00348643	     -6.79714876	     53.39677238	      0.93194949	    -16.58961511	     -3.01256689	      0.00000000
     22.66000000	      0.62377622	     -3.16540922	     -7.47495028	      2.13573023	      1.03867535	      1.07948934	     25.07265532	      5.77658005	     -6.51738862	     32.30682268	      0.56386043	      7.79675391	      8.57209913	      0.00000000	    -10.35216192	     -0.62779992	     -7.05987923	     56.85068520	      0.99223164	    -15.73406858	     -3.15258524	      0.00000000
     22.66666667	      1.45412481	     -3.68552226	     -7.65108924	      2.13447828	      1.03423317	      1.07972118	     24.24818497	      6.24993091	     -6.41224821	     34.15402490	      0.59610019	      8.79935576	      7.82002705	      0.00000000	     -9.83757021	     -1.31596561	     -7.30657650	     60.18169408	      1.05036871	    -15.15629429	     -3.81049885	      0.00000000
     22.67333333	      1.74819407	     -4.15555721	     -7.87478581	      2.13285076	      1.02889963	      1.08019611	     24.03730247	      6.84513831	     -6.06896462	     36.11511040	      0.63032759	      9.98104993	      6.86755948	      0.00000000	     -8.57894145	     -2.20108396	     -7.73120165	     63.74232974	      1.11251353	    -14.45037065	     -3.92584447	      0.00000000
     22.68000000	      2.68452850	     -4.68290446	     -8.09199133	      2.13115044	      1.02439996	      1.08050137	     23.06886145	      7.33736526	     -5.90597335	     38.06840896	      0.66441908	     11.10792942	      6.21477053	      0.00000000	     -8.08544495	     -2.96688183	     -8.05560063	     66.96017855	      1.16867558	    -14.26408143	     -4.71891402	      0.00000000
     22.68666667	      2.68005418	     -5.31803364	     -8.41077016	      2.12909664	      1.01867928	      1.08117143	     23.11655226	      8.25664800	     -5.35879779	     40.04618184	      0.69893773	     12.94403257	      5.29234443	      0.00000000	     -6.41428850	     -4.16081592	     -8.48046245	     70.50457552	      1.23053698	    -13.73873048	     -5.17455217	      0.00000000
     22.69333333	      2.96369614	     -5.91703358	     -8.71535397	      2.12687348	      1.01360261	      1.08175460	     22.77509585	      9.08354990	     -4.80548968	     41.88642599	      0.73105605	     14.49121597	      4.34996302	      0.00000000	     -5.05067348	     -5.22940898	     -8.76936195	     73.78544451	      1.28779895	    -13.50123760	     -5.88972838	      0.00000000
